<svg xmlns="http://www.w3.org/2000/svg" viewBox="0 0 11.625 11.625">
  <path id="edit" d="M11.072.554a1.9,1.9,0,0,0-2.678,0L.805,8.142S.8,8.149.8,8.153l-.012.016a.2.2,0,0,0-.026.05c0,.005,0,.01-.006.016l0,.006L.005,11.366a.209.209,0,0,0,0,.043s0,.005,0,.008a.209.209,0,0,0,.014.07L.02,11.5a.21.21,0,0,0,.041.062.212.212,0,0,0,.069.046.209.209,0,0,0,.08.016.212.212,0,0,0,.049-.006l3.125-.744L3.4,10.87l.021-.008a.207.207,0,0,0,.042-.026l.015-.011.005,0,7.588-7.588A1.9,1.9,0,0,0,11.072.554Zm-.3.3a1.474,1.474,0,0,1,.137,1.923L8.851.714A1.474,1.474,0,0,1,10.774.851ZM9.732,3.976,7.649,1.893l.3-.3L10.03,3.678ZM1.044,10.581a.21.21,0,0,0-.3,0l-.159.159.537-2.257.93-.1-.12,1.078a.21.21,0,0,0,0,.023.215.215,0,0,0,0,.023c0,.007,0,.013.006.019a.214.214,0,0,0,.011.035.2.2,0,0,0,.02.038.2.2,0,0,0,.021.027.211.211,0,0,0,.033.028.214.214,0,0,0,.029.018.219.219,0,0,0,.044.014.22.22,0,0,0,.023.007h.047l1.078-.12-.1.93-2.258.537.159-.159A.211.211,0,0,0,1.044,10.581ZM3.685,9.428,8.393,4.72a.21.21,0,0,0-.3-.3L3.387,9.131l-1,.112.112-1L7.2,3.529a.21.21,0,0,0-.3-.3L2.2,7.941l-.67.074L7.352,2.19,9.435,4.273,3.61,10.1Zm6.643-6.048L8.244,1.3l.3-.3,2.083,2.083Z"/>
</svg>
