<svg xmlns="http://www.w3.org/2000/svg" xmlns:xlink="http://www.w3.org/1999/xlink" viewBox="0 0 25 50">
  <defs>
    <style>
      .cls-1 {
        clip-path: url(#clip-Artboard_1);
      }

      .cls-2 {
        fill: #ffd000;
      }

      .cls-3 {
        opacity: 0.36;
      }

      .cls-4 {
        fill: #494864;
      }
    </style>
    <clipPath id="clip-Artboard_1">
      <rect width="25" height="50"/>
    </clipPath>
  </defs>
  <g id="Artboard_1" data-name="Artboard – 1" class="cls-1">
    <g id="padlock-unlock" transform="translate(-49.243)">
      <path id="Path_1055" data-name="Path 1055" class="cls-2" d="M68.611,9.768a1.136,1.136,0,0,0-.835-.344H58.745V5.5a3.027,3.027,0,0,1,.92-2.221,3.14,3.14,0,0,1,4.442,0,3.027,3.027,0,0,1,.92,2.221.8.8,0,0,0,.785.785H66.6a.8.8,0,0,0,.785-.785A5.3,5.3,0,0,0,65.77,1.614a5.481,5.481,0,0,0-7.768,0A5.294,5.294,0,0,0,56.389,5.5V9.424H56A1.173,1.173,0,0,0,54.818,10.6v7.068A1.173,1.173,0,0,0,56,18.849h11.78a1.173,1.173,0,0,0,1.178-1.178V10.6A1.135,1.135,0,0,0,68.611,9.768Z"/>
    </g>
    <g id="padlock-unlock-2" data-name="padlock-unlock" class="cls-3" transform="translate(-49.243 31)">
      <path id="Path_1055-2" data-name="Path 1055" class="cls-4" d="M68.611,9.768a1.136,1.136,0,0,0-.835-.344H58.745V5.5a3.027,3.027,0,0,1,.92-2.221,3.14,3.14,0,0,1,4.442,0,3.027,3.027,0,0,1,.92,2.221.8.8,0,0,0,.785.785H66.6a.8.8,0,0,0,.785-.785A5.3,5.3,0,0,0,65.77,1.614a5.481,5.481,0,0,0-7.768,0A5.294,5.294,0,0,0,56.389,5.5V9.424H56A1.173,1.173,0,0,0,54.818,10.6v7.068A1.173,1.173,0,0,0,56,18.849h11.78a1.173,1.173,0,0,0,1.178-1.178V10.6A1.135,1.135,0,0,0,68.611,9.768Z"/>
    </g>
  </g>
</svg>
