<svg xmlns="http://www.w3.org/2000/svg" xmlns:xlink="http://www.w3.org/1999/xlink" viewBox="0 0 25 50">
  <defs>
    <style>
      .cls-1 {
        clip-path: url(#clip-Artboard_2);
      }

      .cls-2 {
        opacity: 0.36;
      }

      .cls-3 {
        fill: #494864;
      }

      .cls-4 {
        fill: #ffd000;
      }
    </style>
    <clipPath id="clip-Artboard_2">
      <rect width="25" height="50"/>
    </clipPath>
  </defs>
  <g id="Artboard_2" data-name="Artboard – 2" class="cls-1">
    <g id="money-bag-with-dollar-symbol" class="cls-2" transform="translate(-33.238 26.822)">
      <g id="Group_249" data-name="Group 249" transform="translate(36.238 0)">
        <g id="Group_242" data-name="Group 242" transform="translate(10.049 14.825)">
          <path id="Path_1059" data-name="Path 1059" class="cls-3" d="M222.448,273.607a1.1,1.1,0,0,0-.308-.224,3.714,3.714,0,0,0-.78-.275v2.064a1.466,1.466,0,0,0,1.155-.609h0a.943.943,0,0,0,.086-.644A.648.648,0,0,0,222.448,273.607Z" transform="translate(-221.36 -273.108)"/>
        </g>
        <g id="Group_243" data-name="Group 243" transform="translate(11.202 16.279)">
          <path id="Path_1060" data-name="Path 1060" class="cls-3" d="M242.6,299.9l0,0h0Z" transform="translate(-242.604 -299.9)"/>
        </g>
        <g id="Group_244" data-name="Group 244" transform="translate(7.882 11.514)">
          <path id="Path_1061" data-name="Path 1061" class="cls-3" d="M181.58,212.618a.774.774,0,0,0-.134.363.87.87,0,0,0,.044.4.643.643,0,0,0,.25.275,1.95,1.95,0,0,0,.371.191c.108.044.23.085.361.126v-1.867A1.425,1.425,0,0,0,181.58,212.618Z" transform="translate(-181.441 -212.106)"/>
        </g>
        <g id="Group_245" data-name="Group 245" transform="translate(11.205 16.264)">
          <path id="Path_1062" data-name="Path 1062" class="cls-3" d="M242.656,299.619l-.009.015h0Z" transform="translate(-242.647 -299.619)"/>
        </g>
        <g id="Group_246" data-name="Group 246" transform="translate(11.224 16.244)">
          <path id="Path_1063" data-name="Path 1063" class="cls-3" d="M243,299.245Z" transform="translate(-243.004 -299.244)"/>
        </g>
        <g id="Group_247" data-name="Group 247" transform="translate(0 0)">
          <path id="Path_1064" data-name="Path 1064" class="cls-3" d="M47.014,5.02C48.769,3.545,49.942.224,49.22.079c-.959-.193-3.041.654-4.047.8-1.427.172-2.982-1.548-3.855-.589-.71.78.509,3.615,2.415,4.85C38.046,7.937,30.054,21.967,44,22.985,63.29,24.394,53.629,7.743,47.014,5.02Zm1.657,11.064a2.028,2.028,0,0,1-.782,1.377,2.991,2.991,0,0,1-1.6.566v.6a.567.567,0,1,1-1.135,0v-.661c-.1-.019-.195-.041-.291-.067a2.786,2.786,0,0,1-1.388-.854,2.5,2.5,0,0,1-.428-.707c-.026-.067-.05-.136-.071-.205a1.052,1.052,0,0,1-.045-.192.567.567,0,0,1,1.1-.236c.022.065.036.132.061.2a1.264,1.264,0,0,0,.087.186,1.446,1.446,0,0,0,.249.319,1.689,1.689,0,0,0,.722.393V14.561a4.039,4.039,0,0,1-1.488-.643,1.731,1.731,0,0,1-.5-.6,1.889,1.889,0,0,1-.175-.812,1.936,1.936,0,0,1,.17-.823,2.006,2.006,0,0,1,.466-.639,2.842,2.842,0,0,1,1.53-.678V9.735a.567.567,0,1,1,1.135,0v.624q.111.014.222.034a2.8,2.8,0,0,1,1.482.719,2.165,2.165,0,0,1,.454.652,2.077,2.077,0,0,1,.08.208,1.261,1.261,0,0,1,.053.2.567.567,0,0,1-1.091.287c-.024-.062-.036-.128-.06-.189a1,1,0,0,0-.093-.179,1.082,1.082,0,0,0-.268-.281,1.84,1.84,0,0,0-.779-.3v2.149a7.2,7.2,0,0,1,.969.288,2.266,2.266,0,0,1,1.183.926c-.04-.07-.079-.139,0,0s.041.073,0,0A2.024,2.024,0,0,1,48.671,16.084Z" transform="translate(-36.238 0)"/>
        </g>
        <g id="Group_248" data-name="Group 248" transform="translate(11.188 16.294)">
          <path id="Path_1065" data-name="Path 1065" class="cls-3" d="M242.345,300.169l-.008.015Z" transform="translate(-242.337 -300.169)"/>
        </g>
      </g>
    </g>
    <g id="money-bag-with-dollar-symbol-2" data-name="money-bag-with-dollar-symbol" transform="translate(-33.238 -0.178)">
      <g id="Group_249-2" data-name="Group 249" transform="translate(36.238 0)">
        <g id="Group_242-2" data-name="Group 242" transform="translate(10.049 14.825)">
          <path id="Path_1059-2" data-name="Path 1059" class="cls-4" d="M222.448,273.607a1.1,1.1,0,0,0-.308-.224,3.714,3.714,0,0,0-.78-.275v2.064a1.466,1.466,0,0,0,1.155-.609h0a.943.943,0,0,0,.086-.644A.648.648,0,0,0,222.448,273.607Z" transform="translate(-221.36 -273.108)"/>
        </g>
        <g id="Group_243-2" data-name="Group 243" transform="translate(11.202 16.279)">
          <path id="Path_1060-2" data-name="Path 1060" class="cls-4" d="M242.6,299.9l0,0h0Z" transform="translate(-242.604 -299.9)"/>
        </g>
        <g id="Group_244-2" data-name="Group 244" transform="translate(7.882 11.514)">
          <path id="Path_1061-2" data-name="Path 1061" class="cls-4" d="M181.58,212.618a.774.774,0,0,0-.134.363.87.87,0,0,0,.044.4.643.643,0,0,0,.25.275,1.95,1.95,0,0,0,.371.191c.108.044.23.085.361.126v-1.867A1.425,1.425,0,0,0,181.58,212.618Z" transform="translate(-181.441 -212.106)"/>
        </g>
        <g id="Group_245-2" data-name="Group 245" transform="translate(11.205 16.264)">
          <path id="Path_1062-2" data-name="Path 1062" class="cls-4" d="M242.656,299.619l-.009.015h0Z" transform="translate(-242.647 -299.619)"/>
        </g>
        <g id="Group_246-2" data-name="Group 246" transform="translate(11.224 16.244)">
          <path id="Path_1063-2" data-name="Path 1063" class="cls-4" d="M243,299.245Z" transform="translate(-243.004 -299.244)"/>
        </g>
        <g id="Group_247-2" data-name="Group 247" transform="translate(0 0)">
          <path id="Path_1064-2" data-name="Path 1064" class="cls-4" d="M47.014,5.02C48.769,3.545,49.942.224,49.22.079c-.959-.193-3.041.654-4.047.8-1.427.172-2.982-1.548-3.855-.589-.71.78.509,3.615,2.415,4.85C38.046,7.937,30.054,21.967,44,22.985,63.29,24.394,53.629,7.743,47.014,5.02Zm1.657,11.064a2.028,2.028,0,0,1-.782,1.377,2.991,2.991,0,0,1-1.6.566v.6a.567.567,0,1,1-1.135,0v-.661c-.1-.019-.195-.041-.291-.067a2.786,2.786,0,0,1-1.388-.854,2.5,2.5,0,0,1-.428-.707c-.026-.067-.05-.136-.071-.205a1.052,1.052,0,0,1-.045-.192.567.567,0,0,1,1.1-.236c.022.065.036.132.061.2a1.264,1.264,0,0,0,.087.186,1.446,1.446,0,0,0,.249.319,1.689,1.689,0,0,0,.722.393V14.561a4.039,4.039,0,0,1-1.488-.643,1.731,1.731,0,0,1-.5-.6,1.889,1.889,0,0,1-.175-.812,1.936,1.936,0,0,1,.17-.823,2.006,2.006,0,0,1,.466-.639,2.842,2.842,0,0,1,1.53-.678V9.735a.567.567,0,1,1,1.135,0v.624q.111.014.222.034a2.8,2.8,0,0,1,1.482.719,2.165,2.165,0,0,1,.454.652,2.077,2.077,0,0,1,.08.208,1.261,1.261,0,0,1,.053.2.567.567,0,0,1-1.091.287c-.024-.062-.036-.128-.06-.189a1,1,0,0,0-.093-.179,1.082,1.082,0,0,0-.268-.281,1.84,1.84,0,0,0-.779-.3v2.149a7.2,7.2,0,0,1,.969.288,2.266,2.266,0,0,1,1.183.926c-.04-.07-.079-.139,0,0s.041.073,0,0A2.024,2.024,0,0,1,48.671,16.084Z" transform="translate(-36.238 0)"/>
        </g>
        <g id="Group_248-2" data-name="Group 248" transform="translate(11.188 16.294)">
          <path id="Path_1065-2" data-name="Path 1065" class="cls-4" d="M242.345,300.169l-.008.015Z" transform="translate(-242.337 -300.169)"/>
        </g>
      </g>
    </g>
  </g>
</svg>
