<svg xmlns="http://www.w3.org/2000/svg" xmlns:xlink="http://www.w3.org/1999/xlink" viewBox="0 0 25 50">
  <defs>
    <style>
      .cls-1 {
        clip-path: url(#clip-Artboard_2);
      }

      .cls-2 {
        opacity: 0.36;
      }

      .cls-3 {
        fill: #494864;
      }

      .cls-4 {
        fill: #ffd000;
      }
    </style>
    <clipPath id="clip-Artboard_2">
      <rect width="25" height="50"/>
    </clipPath>
  </defs>
  <g id="Artboard_2" data-name="Artboard – 2" class="cls-1">
    <g id="Group_261" data-name="Group 261" class="cls-2" transform="translate(3.219 32.219)">
      <path id="Path_1056" data-name="Path 1056" class="cls-3" d="M13.686,56.313a1.261,1.261,0,0,0-1.906,0c-.446.442-.891.884-1.329,1.333a.263.263,0,0,1-.367.067c-.288-.157-.6-.285-.872-.457a13.823,13.823,0,0,1-3.332-3.033A7.9,7.9,0,0,1,4.684,52.31a.274.274,0,0,1,.067-.352c.446-.431.88-.872,1.318-1.314a1.266,1.266,0,0,0,0-1.951c-.348-.352-.7-.7-1.045-1.048s-.715-.723-1.078-1.078a1.269,1.269,0,0,0-1.906,0c-.449.442-.88.895-1.337,1.329a2.17,2.17,0,0,0-.681,1.464A6.2,6.2,0,0,0,.5,52.033a16.223,16.223,0,0,0,2.879,4.8,17.818,17.818,0,0,0,5.9,4.617,8.534,8.534,0,0,0,3.269.951,2.4,2.4,0,0,0,2.056-.783c.382-.427.813-.816,1.217-1.224a1.274,1.274,0,0,0,.007-1.94Q14.76,57.378,13.686,56.313Z" transform="translate(-0.006 -44.41)"/>
      <path id="Path_1057" data-name="Path 1057" class="cls-3" d="M241.913,101.324l1.382-.236A6.2,6.2,0,0,0,238.049,96l-.195,1.389a4.793,4.793,0,0,1,4.059,3.935Z" transform="translate(-228.948 -92.405)"/>
      <path id="Path_1058" data-name="Path 1058" class="cls-3" d="M248.79,2.913A10.188,10.188,0,0,0,242.949,0l-.195,1.389a8.89,8.89,0,0,1,7.522,7.29l1.382-.236A10.262,10.262,0,0,0,248.79,2.913Z" transform="translate(-233.665)"/>
    </g>
    <g id="Group_262" data-name="Group 262" transform="translate(3.219 0.219)">
      <path id="Path_1056-2" data-name="Path 1056" class="cls-4" d="M13.686,56.313a1.261,1.261,0,0,0-1.906,0c-.446.442-.891.884-1.329,1.333a.263.263,0,0,1-.367.067c-.288-.157-.6-.285-.872-.457a13.823,13.823,0,0,1-3.332-3.033A7.9,7.9,0,0,1,4.684,52.31a.274.274,0,0,1,.067-.352c.446-.431.88-.872,1.318-1.314a1.266,1.266,0,0,0,0-1.951c-.348-.352-.7-.7-1.045-1.048s-.715-.723-1.078-1.078a1.269,1.269,0,0,0-1.906,0c-.449.442-.88.895-1.337,1.329a2.17,2.17,0,0,0-.681,1.464A6.2,6.2,0,0,0,.5,52.033a16.223,16.223,0,0,0,2.879,4.8,17.818,17.818,0,0,0,5.9,4.617,8.534,8.534,0,0,0,3.269.951,2.4,2.4,0,0,0,2.056-.783c.382-.427.813-.816,1.217-1.224a1.274,1.274,0,0,0,.007-1.94Q14.76,57.378,13.686,56.313Z" transform="translate(-0.006 -44.41)"/>
      <path id="Path_1057-2" data-name="Path 1057" class="cls-4" d="M241.913,101.324l1.382-.236A6.2,6.2,0,0,0,238.049,96l-.195,1.389a4.793,4.793,0,0,1,4.059,3.935Z" transform="translate(-228.948 -92.405)"/>
      <path id="Path_1058-2" data-name="Path 1058" class="cls-4" d="M248.79,2.913A10.188,10.188,0,0,0,242.949,0l-.195,1.389a8.89,8.89,0,0,1,7.522,7.29l1.382-.236A10.262,10.262,0,0,0,248.79,2.913Z" transform="translate(-233.665)"/>
    </g>
  </g>
</svg>
