<svg xmlns="http://www.w3.org/2000/svg" xmlns:xlink="http://www.w3.org/1999/xlink" viewBox="0 0 25 50">
  <defs>
    <style>
      .cls-1 {
        clip-path: url(#clip-Artboard_2);
      }

      .cls-2 {
        opacity: 0.36;
      }

      .cls-3 {
        fill: #494864;
      }

      .cls-4 {
        fill: #ffd000;
      }
    </style>
    <clipPath id="clip-Artboard_2">
      <rect width="25" height="50"/>
    </clipPath>
  </defs>
  <g id="Artboard_2" data-name="Artboard – 2" class="cls-1">
    <g id="gear" class="cls-2" transform="translate(2 30)">
      <g id="Group_250" data-name="Group 250">
        <path id="Path_1066" data-name="Path 1066" class="cls-3" d="M19.621,8.287l-2.3-.566a7.6,7.6,0,0,0-.531-1.264L17.86,4.671a.588.588,0,0,0-.088-.718L16.109,2.29a.586.586,0,0,0-.718-.088L13.6,3.274a7.574,7.574,0,0,0-1.257-.526l-.566-2.3A.588.588,0,0,0,11.209,0H8.857a.587.587,0,0,0-.57.445s-.392,1.606-.566,2.3a7.547,7.547,0,0,0-1.334.568L4.533,2.2a.59.59,0,0,0-.718.088L2.152,3.953a.588.588,0,0,0-.088.718L3.211,6.587A7.576,7.576,0,0,0,2.747,7.72l-2.3.568A.588.588,0,0,0,0,8.857v2.352a.587.587,0,0,0,.445.57l2.3.566a7.583,7.583,0,0,0,.541,1.285L2.262,15.341a.588.588,0,0,0,.088.718l1.663,1.663a.59.59,0,0,0,.718.088l1.715-1.028a7.574,7.574,0,0,0,1.276.537l.566,2.3a.587.587,0,0,0,.57.446h2.352a.588.588,0,0,0,.57-.445l.566-2.3a7.468,7.468,0,0,0,1.3-.554l1.742,1.045a.588.588,0,0,0,.718-.088l1.663-1.663a.588.588,0,0,0,.088-.718L16.8,13.581a7.529,7.529,0,0,0,.516-1.235l2.3-.566a.588.588,0,0,0,.446-.57V8.857A.588.588,0,0,0,19.621,8.287Zm-9.588,5.861a4.115,4.115,0,1,1,4.115-4.115A4.12,4.12,0,0,1,10.033,14.148Z"/>
      </g>
    </g>
    <g id="gear-2" data-name="gear" transform="translate(2)">
      <g id="Group_250-2" data-name="Group 250">
        <path id="Path_1066-2" data-name="Path 1066" class="cls-4" d="M19.621,8.287l-2.3-.566a7.6,7.6,0,0,0-.531-1.264L17.86,4.671a.588.588,0,0,0-.088-.718L16.109,2.29a.586.586,0,0,0-.718-.088L13.6,3.274a7.574,7.574,0,0,0-1.257-.526l-.566-2.3A.588.588,0,0,0,11.209,0H8.857a.587.587,0,0,0-.57.445s-.392,1.606-.566,2.3a7.547,7.547,0,0,0-1.334.568L4.533,2.2a.59.59,0,0,0-.718.088L2.152,3.953a.588.588,0,0,0-.088.718L3.211,6.587A7.576,7.576,0,0,0,2.747,7.72l-2.3.568A.588.588,0,0,0,0,8.857v2.352a.587.587,0,0,0,.445.57l2.3.566a7.583,7.583,0,0,0,.541,1.285L2.262,15.341a.588.588,0,0,0,.088.718l1.663,1.663a.59.59,0,0,0,.718.088l1.715-1.028a7.574,7.574,0,0,0,1.276.537l.566,2.3a.587.587,0,0,0,.57.446h2.352a.588.588,0,0,0,.57-.445l.566-2.3a7.468,7.468,0,0,0,1.3-.554l1.742,1.045a.588.588,0,0,0,.718-.088l1.663-1.663a.588.588,0,0,0,.088-.718L16.8,13.581a7.529,7.529,0,0,0,.516-1.235l2.3-.566a.588.588,0,0,0,.446-.57V8.857A.588.588,0,0,0,19.621,8.287Zm-9.588,5.861a4.115,4.115,0,1,1,4.115-4.115A4.12,4.12,0,0,1,10.033,14.148Z"/>
      </g>
    </g>
  </g>
</svg>
