<svg xmlns="http://www.w3.org/2000/svg" xmlns:xlink="http://www.w3.org/1999/xlink" viewBox="0 0 25 50">
  <defs>
    <style>
      .cls-1 {
        clip-path: url(#clip-Artboard_2);
      }

      .cls-2 {
        fill: #494864;
        opacity: 0.36;
      }

      .cls-3 {
        fill: #ffd000;
      }
    </style>
    <clipPath id="clip-Artboard_2">
      <rect width="25" height="50"/>
    </clipPath>
  </defs>
  <g id="Artboard_2" data-name="Artboard – 2" class="cls-1">
    <path id="speech-bubble" class="cls-2" d="M2.095,14.481H9.25l6.093,5v-5h2.2a2.033,2.033,0,0,0,2.013-2.049V2.049A2.033,2.033,0,0,0,17.543,0H2.095A2.033,2.033,0,0,0,.082,2.049V12.433A2.033,2.033,0,0,0,2.095,14.481ZM14.546,7.719c-.783-.264-1.086-.69-1.078-1.14,0-.705.6-1.24,1.543-1.24a2.543,2.543,0,0,1,1.07.217l-.209.814a1.857,1.857,0,0,0-.822-.218c-.287,0-.45.116-.45.31,0,.178.147.272.613.434.721.248,1.023.613,1.031,1.171,0,.705-.558,1.225-1.644,1.225a2.682,2.682,0,0,1-1.225-.263l.209-.845a2.3,2.3,0,0,0,1.016.287c.357,0,.5-.124.5-.318S14.988,7.867,14.546,7.719Zm-6.659-2.3.054.512h.023a1.315,1.315,0,0,1,1.148-.6,1.074,1.074,0,0,1,1.039.643h.015a1.693,1.693,0,0,1,.489-.457,1.369,1.369,0,0,1,.721-.186c.729,0,1.279.512,1.279,1.643V9.216H11.508V7.154c0-.551-.179-.869-.559-.869a.576.576,0,0,0-.543.411.987.987,0,0,0-.046.3V9.216H9.213V7.091c0-.481-.171-.806-.543-.806a.6.6,0,0,0-.55.427.783.783,0,0,0-.046.295v2.21H6.926V6.634c0-.472-.015-.876-.031-1.209h.992Zm-3.372,2.3c-.783-.264-1.086-.69-1.078-1.14,0-.705.6-1.24,1.543-1.24a2.541,2.541,0,0,1,1.07.217l-.209.814a1.857,1.857,0,0,0-.822-.218c-.287,0-.45.116-.45.31,0,.178.147.272.613.434.721.248,1.023.613,1.031,1.171,0,.705-.558,1.225-1.644,1.225A2.682,2.682,0,0,1,3.345,9.03l.209-.845a2.3,2.3,0,0,0,1.016.287c.357,0,.5-.124.5-.318S4.957,7.867,4.515,7.719Z" transform="translate(2.918 30.063)"/>
    <path id="speech-bubble-2" data-name="speech-bubble" class="cls-3" d="M2.095,14.481H9.25l6.093,5v-5h2.2a2.033,2.033,0,0,0,2.013-2.049V2.049A2.033,2.033,0,0,0,17.543,0H2.095A2.033,2.033,0,0,0,.082,2.049V12.433A2.033,2.033,0,0,0,2.095,14.481ZM14.546,7.719c-.783-.264-1.086-.69-1.078-1.14,0-.705.6-1.24,1.543-1.24a2.543,2.543,0,0,1,1.07.217l-.209.814a1.857,1.857,0,0,0-.822-.218c-.287,0-.45.116-.45.31,0,.178.147.272.613.434.721.248,1.023.613,1.031,1.171,0,.705-.558,1.225-1.644,1.225a2.682,2.682,0,0,1-1.225-.263l.209-.845a2.3,2.3,0,0,0,1.016.287c.357,0,.5-.124.5-.318S14.988,7.867,14.546,7.719Zm-6.659-2.3.054.512h.023a1.315,1.315,0,0,1,1.148-.6,1.074,1.074,0,0,1,1.039.643h.015a1.693,1.693,0,0,1,.489-.457,1.369,1.369,0,0,1,.721-.186c.729,0,1.279.512,1.279,1.643V9.216H11.508V7.154c0-.551-.179-.869-.559-.869a.576.576,0,0,0-.543.411.987.987,0,0,0-.046.3V9.216H9.213V7.091c0-.481-.171-.806-.543-.806a.6.6,0,0,0-.55.427.783.783,0,0,0-.046.295v2.21H6.926V6.634c0-.472-.015-.876-.031-1.209h.992Zm-3.372,2.3c-.783-.264-1.086-.69-1.078-1.14,0-.705.6-1.24,1.543-1.24a2.541,2.541,0,0,1,1.07.217l-.209.814a1.857,1.857,0,0,0-.822-.218c-.287,0-.45.116-.45.31,0,.178.147.272.613.434.721.248,1.023.613,1.031,1.171,0,.705-.558,1.225-1.644,1.225A2.682,2.682,0,0,1,3.345,9.03l.209-.845a2.3,2.3,0,0,0,1.016.287c.357,0,.5-.124.5-.318S4.957,7.867,4.515,7.719Z" transform="translate(2.918 0.063)"/>
  </g>
</svg>
